<?xml version="1.0" encoding="utf-8" standalone="no"?>
<!DOCTYPE svg PUBLIC "-//W3C//DTD SVG 1.1//EN"
  "http://www.w3.org/Graphics/SVG/1.1/DTD/svg11.dtd">
<svg height="648pt" version="1.1" viewBox="0 0 864 648" width="864pt" xmlns="http://www.w3.org/2000/svg" xmlns:xlink="http://www.w3.org/1999/xlink">
 <metadata>
  <rdf:RDF xmlns:cc="http://creativecommons.org/ns#" xmlns:dc="http://purl.org/dc/elements/1.1/" xmlns:rdf="http://www.w3.org/1999/02/22-rdf-syntax-ns#">
   <cc:Work>
    <dc:type rdf:resource="http://purl.org/dc/dcmitype/StillImage"/>
    <dc:date>2021-09-10T14:42:51.056936</dc:date>
    <dc:format>image/svg+xml</dc:format>
    <dc:creator>
     <cc:Agent>
      <dc:title>Matplotlib v3.4.3, https://matplotlib.org/</dc:title>
     </cc:Agent>
    </dc:creator>
   </cc:Work>
  </rdf:RDF>
 </metadata>
 <defs>
  <style type="text/css">*{stroke-linecap:butt;stroke-linejoin:round;}</style>
 </defs>
 <g id="figure_1">
  <g id="patch_1">
   <path d="M 0 648 
L 864 648 
L 864 0 
L 0 0 
z
" style="fill:#ffffff;"/>
  </g>
  <g id="axes_1">
   <g id="patch_2">
    <path d="M 108 304.56 
L 777.6 304.56 
L 777.6 77.76 
L 108 77.76 
z
" style="fill:#ffffff;"/>
   </g>
   <g id="PathCollection_1">
    <defs>
     <path d="M 0 3 
C 0.795609 3 1.55874 2.683901 2.12132 2.12132 
C 2.683901 1.55874 3 0.795609 3 0 
C 3 -0.795609 2.683901 -1.55874 2.12132 -2.12132 
C 1.55874 -2.683901 0.795609 -3 0 -3 
C -0.795609 -3 -1.55874 -2.683901 -2.12132 -2.12132 
C -2.683901 -1.55874 -3 -0.795609 -3 0 
C -3 0.795609 -2.683901 1.55874 -2.12132 2.12132 
C -1.55874 2.683901 -0.795609 3 0 3 
z
" id="mcdd64c35fd" style="stroke:#bfbf00;"/>
    </defs>
    <g clip-path="url(#p52bb399e5f)">
     <use style="fill:#bfbf00;stroke:#bfbf00;" x="594.981818" xlink:href="#mcdd64c35fd" y="166.340672"/>
     <use style="fill:#bfbf00;stroke:#bfbf00;" x="520.360006" xlink:href="#mcdd64c35fd" y="166.340672"/>
     <use style="fill:#bfbf00;stroke:#bfbf00;" x="495.551962" xlink:href="#mcdd64c35fd" y="166.340672"/>
     <use style="fill:#bfbf00;stroke:#bfbf00;" x="494.169553" xlink:href="#mcdd64c35fd" y="166.340672"/>
     <use style="fill:#bfbf00;stroke:#bfbf00;" x="494.166774" xlink:href="#mcdd64c35fd" y="166.340672"/>
     <use style="fill:#bfbf00;stroke:#bfbf00;" x="494.166774" xlink:href="#mcdd64c35fd" y="166.340672"/>
     <use style="fill:#bfbf00;stroke:#bfbf00;" x="494.166774" xlink:href="#mcdd64c35fd" y="166.340672"/>
     <use style="fill:#bfbf00;stroke:#bfbf00;" x="494.166774" xlink:href="#mcdd64c35fd" y="166.340672"/>
     <use style="fill:#bfbf00;stroke:#bfbf00;" x="494.166774" xlink:href="#mcdd64c35fd" y="166.340672"/>
     <use style="fill:#bfbf00;stroke:#bfbf00;" x="494.166774" xlink:href="#mcdd64c35fd" y="166.340672"/>
     <use style="fill:#bfbf00;stroke:#bfbf00;" x="494.166774" xlink:href="#mcdd64c35fd" y="166.340672"/>
    </g>
   </g>
   <g id="matplotlib.axis_1">
    <g id="xtick_1">
     <g id="line2d_1">
      <path clip-path="url(#p52bb399e5f)" d="M 138.436364 304.56 
L 138.436364 77.76 
" style="fill:none;stroke:#b0b0b0;stroke-linecap:square;stroke-width:0.8;"/>
     </g>
     <g id="line2d_2">
      <defs>
       <path d="M 0 0 
L 0 3.5 
" id="m7f7030691c" style="stroke:#000000;stroke-width:0.8;"/>
      </defs>
      <g>
       <use style="stroke:#000000;stroke-width:0.8;" x="138.436364" xlink:href="#m7f7030691c" y="304.56"/>
      </g>
     </g>
     <g id="text_1">
      <!-- −2.0 -->
      <g transform="translate(126.294957 319.158437)scale(0.1 -0.1)">
       <defs>
        <path d="M 678 2272 
L 4684 2272 
L 4684 1741 
L 678 1741 
L 678 2272 
z
" id="DejaVuSans-2212" transform="scale(0.015625)"/>
        <path d="M 1228 531 
L 3431 531 
L 3431 0 
L 469 0 
L 469 531 
Q 828 903 1448 1529 
Q 2069 2156 2228 2338 
Q 2531 2678 2651 2914 
Q 2772 3150 2772 3378 
Q 2772 3750 2511 3984 
Q 2250 4219 1831 4219 
Q 1534 4219 1204 4116 
Q 875 4013 500 3803 
L 500 4441 
Q 881 4594 1212 4672 
Q 1544 4750 1819 4750 
Q 2544 4750 2975 4387 
Q 3406 4025 3406 3419 
Q 3406 3131 3298 2873 
Q 3191 2616 2906 2266 
Q 2828 2175 2409 1742 
Q 1991 1309 1228 531 
z
" id="DejaVuSans-32" transform="scale(0.015625)"/>
        <path d="M 684 794 
L 1344 794 
L 1344 0 
L 684 0 
L 684 794 
z
" id="DejaVuSans-2e" transform="scale(0.015625)"/>
        <path d="M 2034 4250 
Q 1547 4250 1301 3770 
Q 1056 3291 1056 2328 
Q 1056 1369 1301 889 
Q 1547 409 2034 409 
Q 2525 409 2770 889 
Q 3016 1369 3016 2328 
Q 3016 3291 2770 3770 
Q 2525 4250 2034 4250 
z
M 2034 4750 
Q 2819 4750 3233 4129 
Q 3647 3509 3647 2328 
Q 3647 1150 3233 529 
Q 2819 -91 2034 -91 
Q 1250 -91 836 529 
Q 422 1150 422 2328 
Q 422 3509 836 4129 
Q 1250 4750 2034 4750 
z
" id="DejaVuSans-30" transform="scale(0.015625)"/>
       </defs>
       <use xlink:href="#DejaVuSans-2212"/>
       <use x="83.789062" xlink:href="#DejaVuSans-32"/>
       <use x="147.412109" xlink:href="#DejaVuSans-2e"/>
       <use x="179.199219" xlink:href="#DejaVuSans-30"/>
      </g>
     </g>
    </g>
    <g id="xtick_2">
     <g id="line2d_3">
      <path clip-path="url(#p52bb399e5f)" d="M 214.527273 304.56 
L 214.527273 77.76 
" style="fill:none;stroke:#b0b0b0;stroke-linecap:square;stroke-width:0.8;"/>
     </g>
     <g id="line2d_4">
      <g>
       <use style="stroke:#000000;stroke-width:0.8;" x="214.527273" xlink:href="#m7f7030691c" y="304.56"/>
      </g>
     </g>
     <g id="text_2">
      <!-- −1.5 -->
      <g transform="translate(202.385866 319.158437)scale(0.1 -0.1)">
       <defs>
        <path d="M 794 531 
L 1825 531 
L 1825 4091 
L 703 3866 
L 703 4441 
L 1819 4666 
L 2450 4666 
L 2450 531 
L 3481 531 
L 3481 0 
L 794 0 
L 794 531 
z
" id="DejaVuSans-31" transform="scale(0.015625)"/>
        <path d="M 691 4666 
L 3169 4666 
L 3169 4134 
L 1269 4134 
L 1269 2991 
Q 1406 3038 1543 3061 
Q 1681 3084 1819 3084 
Q 2600 3084 3056 2656 
Q 3513 2228 3513 1497 
Q 3513 744 3044 326 
Q 2575 -91 1722 -91 
Q 1428 -91 1123 -41 
Q 819 9 494 109 
L 494 744 
Q 775 591 1075 516 
Q 1375 441 1709 441 
Q 2250 441 2565 725 
Q 2881 1009 2881 1497 
Q 2881 1984 2565 2268 
Q 2250 2553 1709 2553 
Q 1456 2553 1204 2497 
Q 953 2441 691 2322 
L 691 4666 
z
" id="DejaVuSans-35" transform="scale(0.015625)"/>
       </defs>
       <use xlink:href="#DejaVuSans-2212"/>
       <use x="83.789062" xlink:href="#DejaVuSans-31"/>
       <use x="147.412109" xlink:href="#DejaVuSans-2e"/>
       <use x="179.199219" xlink:href="#DejaVuSans-35"/>
      </g>
     </g>
    </g>
    <g id="xtick_3">
     <g id="line2d_5">
      <path clip-path="url(#p52bb399e5f)" d="M 290.618182 304.56 
L 290.618182 77.76 
" style="fill:none;stroke:#b0b0b0;stroke-linecap:square;stroke-width:0.8;"/>
     </g>
     <g id="line2d_6">
      <g>
       <use style="stroke:#000000;stroke-width:0.8;" x="290.618182" xlink:href="#m7f7030691c" y="304.56"/>
      </g>
     </g>
     <g id="text_3">
      <!-- −1.0 -->
      <g transform="translate(278.476776 319.158437)scale(0.1 -0.1)">
       <use xlink:href="#DejaVuSans-2212"/>
       <use x="83.789062" xlink:href="#DejaVuSans-31"/>
       <use x="147.412109" xlink:href="#DejaVuSans-2e"/>
       <use x="179.199219" xlink:href="#DejaVuSans-30"/>
      </g>
     </g>
    </g>
    <g id="xtick_4">
     <g id="line2d_7">
      <path clip-path="url(#p52bb399e5f)" d="M 366.709091 304.56 
L 366.709091 77.76 
" style="fill:none;stroke:#b0b0b0;stroke-linecap:square;stroke-width:0.8;"/>
     </g>
     <g id="line2d_8">
      <g>
       <use style="stroke:#000000;stroke-width:0.8;" x="366.709091" xlink:href="#m7f7030691c" y="304.56"/>
      </g>
     </g>
     <g id="text_4">
      <!-- −0.5 -->
      <g transform="translate(354.567685 319.158437)scale(0.1 -0.1)">
       <use xlink:href="#DejaVuSans-2212"/>
       <use x="83.789062" xlink:href="#DejaVuSans-30"/>
       <use x="147.412109" xlink:href="#DejaVuSans-2e"/>
       <use x="179.199219" xlink:href="#DejaVuSans-35"/>
      </g>
     </g>
    </g>
    <g id="xtick_5">
     <g id="line2d_9">
      <path clip-path="url(#p52bb399e5f)" d="M 442.8 304.56 
L 442.8 77.76 
" style="fill:none;stroke:#b0b0b0;stroke-linecap:square;stroke-width:0.8;"/>
     </g>
     <g id="line2d_10">
      <g>
       <use style="stroke:#000000;stroke-width:0.8;" x="442.8" xlink:href="#m7f7030691c" y="304.56"/>
      </g>
     </g>
     <g id="text_5">
      <!-- 0.0 -->
      <g transform="translate(434.848437 319.158437)scale(0.1 -0.1)">
       <use xlink:href="#DejaVuSans-30"/>
       <use x="63.623047" xlink:href="#DejaVuSans-2e"/>
       <use x="95.410156" xlink:href="#DejaVuSans-30"/>
      </g>
     </g>
    </g>
    <g id="xtick_6">
     <g id="line2d_11">
      <path clip-path="url(#p52bb399e5f)" d="M 518.890909 304.56 
L 518.890909 77.76 
" style="fill:none;stroke:#b0b0b0;stroke-linecap:square;stroke-width:0.8;"/>
     </g>
     <g id="line2d_12">
      <g>
       <use style="stroke:#000000;stroke-width:0.8;" x="518.890909" xlink:href="#m7f7030691c" y="304.56"/>
      </g>
     </g>
     <g id="text_6">
      <!-- 0.5 -->
      <g transform="translate(510.939347 319.158437)scale(0.1 -0.1)">
       <use xlink:href="#DejaVuSans-30"/>
       <use x="63.623047" xlink:href="#DejaVuSans-2e"/>
       <use x="95.410156" xlink:href="#DejaVuSans-35"/>
      </g>
     </g>
    </g>
    <g id="xtick_7">
     <g id="line2d_13">
      <path clip-path="url(#p52bb399e5f)" d="M 594.981818 304.56 
L 594.981818 77.76 
" style="fill:none;stroke:#b0b0b0;stroke-linecap:square;stroke-width:0.8;"/>
     </g>
     <g id="line2d_14">
      <g>
       <use style="stroke:#000000;stroke-width:0.8;" x="594.981818" xlink:href="#m7f7030691c" y="304.56"/>
      </g>
     </g>
     <g id="text_7">
      <!-- 1.0 -->
      <g transform="translate(587.030256 319.158437)scale(0.1 -0.1)">
       <use xlink:href="#DejaVuSans-31"/>
       <use x="63.623047" xlink:href="#DejaVuSans-2e"/>
       <use x="95.410156" xlink:href="#DejaVuSans-30"/>
      </g>
     </g>
    </g>
    <g id="xtick_8">
     <g id="line2d_15">
      <path clip-path="url(#p52bb399e5f)" d="M 671.072727 304.56 
L 671.072727 77.76 
" style="fill:none;stroke:#b0b0b0;stroke-linecap:square;stroke-width:0.8;"/>
     </g>
     <g id="line2d_16">
      <g>
       <use style="stroke:#000000;stroke-width:0.8;" x="671.072727" xlink:href="#m7f7030691c" y="304.56"/>
      </g>
     </g>
     <g id="text_8">
      <!-- 1.5 -->
      <g transform="translate(663.121165 319.158437)scale(0.1 -0.1)">
       <use xlink:href="#DejaVuSans-31"/>
       <use x="63.623047" xlink:href="#DejaVuSans-2e"/>
       <use x="95.410156" xlink:href="#DejaVuSans-35"/>
      </g>
     </g>
    </g>
    <g id="xtick_9">
     <g id="line2d_17">
      <path clip-path="url(#p52bb399e5f)" d="M 747.163636 304.56 
L 747.163636 77.76 
" style="fill:none;stroke:#b0b0b0;stroke-linecap:square;stroke-width:0.8;"/>
     </g>
     <g id="line2d_18">
      <g>
       <use style="stroke:#000000;stroke-width:0.8;" x="747.163636" xlink:href="#m7f7030691c" y="304.56"/>
      </g>
     </g>
     <g id="text_9">
      <!-- 2.0 -->
      <g transform="translate(739.212074 319.158437)scale(0.1 -0.1)">
       <use xlink:href="#DejaVuSans-32"/>
       <use x="63.623047" xlink:href="#DejaVuSans-2e"/>
       <use x="95.410156" xlink:href="#DejaVuSans-30"/>
      </g>
     </g>
    </g>
    <g id="text_10">
     <!-- x -->
     <g transform="translate(439.840625 332.836563)scale(0.1 -0.1)">
      <defs>
       <path d="M 3513 3500 
L 2247 1797 
L 3578 0 
L 2900 0 
L 1881 1375 
L 863 0 
L 184 0 
L 1544 1831 
L 300 3500 
L 978 3500 
L 1906 2253 
L 2834 3500 
L 3513 3500 
z
" id="DejaVuSans-78" transform="scale(0.015625)"/>
      </defs>
      <use xlink:href="#DejaVuSans-78"/>
     </g>
    </g>
   </g>
   <g id="matplotlib.axis_2">
    <g id="ytick_1">
     <g id="line2d_19">
      <path clip-path="url(#p52bb399e5f)" d="M 108 298.281326 
L 777.6 298.281326 
" style="fill:none;stroke:#b0b0b0;stroke-linecap:square;stroke-width:0.8;"/>
     </g>
     <g id="line2d_20">
      <defs>
       <path d="M 0 0 
L -3.5 0 
" id="m11a2686248" style="stroke:#000000;stroke-width:0.8;"/>
      </defs>
      <g>
       <use style="stroke:#000000;stroke-width:0.8;" x="108" xlink:href="#m11a2686248" y="298.281326"/>
      </g>
     </g>
     <g id="text_11">
      <!-- −20 -->
      <g transform="translate(79.895313 302.080545)scale(0.1 -0.1)">
       <use xlink:href="#DejaVuSans-2212"/>
       <use x="83.789062" xlink:href="#DejaVuSans-32"/>
       <use x="147.412109" xlink:href="#DejaVuSans-30"/>
      </g>
     </g>
    </g>
    <g id="ytick_2">
     <g id="line2d_21">
      <path clip-path="url(#p52bb399e5f)" d="M 108 265.296162 
L 777.6 265.296162 
" style="fill:none;stroke:#b0b0b0;stroke-linecap:square;stroke-width:0.8;"/>
     </g>
     <g id="line2d_22">
      <g>
       <use style="stroke:#000000;stroke-width:0.8;" x="108" xlink:href="#m11a2686248" y="265.296162"/>
      </g>
     </g>
     <g id="text_12">
      <!-- −15 -->
      <g transform="translate(79.895313 269.095381)scale(0.1 -0.1)">
       <use xlink:href="#DejaVuSans-2212"/>
       <use x="83.789062" xlink:href="#DejaVuSans-31"/>
       <use x="147.412109" xlink:href="#DejaVuSans-35"/>
      </g>
     </g>
    </g>
    <g id="ytick_3">
     <g id="line2d_23">
      <path clip-path="url(#p52bb399e5f)" d="M 108 232.310999 
L 777.6 232.310999 
" style="fill:none;stroke:#b0b0b0;stroke-linecap:square;stroke-width:0.8;"/>
     </g>
     <g id="line2d_24">
      <g>
       <use style="stroke:#000000;stroke-width:0.8;" x="108" xlink:href="#m11a2686248" y="232.310999"/>
      </g>
     </g>
     <g id="text_13">
      <!-- −10 -->
      <g transform="translate(79.895313 236.110218)scale(0.1 -0.1)">
       <use xlink:href="#DejaVuSans-2212"/>
       <use x="83.789062" xlink:href="#DejaVuSans-31"/>
       <use x="147.412109" xlink:href="#DejaVuSans-30"/>
      </g>
     </g>
    </g>
    <g id="ytick_4">
     <g id="line2d_25">
      <path clip-path="url(#p52bb399e5f)" d="M 108 199.325836 
L 777.6 199.325836 
" style="fill:none;stroke:#b0b0b0;stroke-linecap:square;stroke-width:0.8;"/>
     </g>
     <g id="line2d_26">
      <g>
       <use style="stroke:#000000;stroke-width:0.8;" x="108" xlink:href="#m11a2686248" y="199.325836"/>
      </g>
     </g>
     <g id="text_14">
      <!-- −5 -->
      <g transform="translate(86.257812 203.125054)scale(0.1 -0.1)">
       <use xlink:href="#DejaVuSans-2212"/>
       <use x="83.789062" xlink:href="#DejaVuSans-35"/>
      </g>
     </g>
    </g>
    <g id="ytick_5">
     <g id="line2d_27">
      <path clip-path="url(#p52bb399e5f)" d="M 108 166.340672 
L 777.6 166.340672 
" style="fill:none;stroke:#b0b0b0;stroke-linecap:square;stroke-width:0.8;"/>
     </g>
     <g id="line2d_28">
      <g>
       <use style="stroke:#000000;stroke-width:0.8;" x="108" xlink:href="#m11a2686248" y="166.340672"/>
      </g>
     </g>
     <g id="text_15">
      <!-- 0 -->
      <g transform="translate(94.6375 170.139891)scale(0.1 -0.1)">
       <use xlink:href="#DejaVuSans-30"/>
      </g>
     </g>
    </g>
    <g id="ytick_6">
     <g id="line2d_29">
      <path clip-path="url(#p52bb399e5f)" d="M 108 133.355509 
L 777.6 133.355509 
" style="fill:none;stroke:#b0b0b0;stroke-linecap:square;stroke-width:0.8;"/>
     </g>
     <g id="line2d_30">
      <g>
       <use style="stroke:#000000;stroke-width:0.8;" x="108" xlink:href="#m11a2686248" y="133.355509"/>
      </g>
     </g>
     <g id="text_16">
      <!-- 5 -->
      <g transform="translate(94.6375 137.154727)scale(0.1 -0.1)">
       <use xlink:href="#DejaVuSans-35"/>
      </g>
     </g>
    </g>
    <g id="ytick_7">
     <g id="line2d_31">
      <path clip-path="url(#p52bb399e5f)" d="M 108 100.370345 
L 777.6 100.370345 
" style="fill:none;stroke:#b0b0b0;stroke-linecap:square;stroke-width:0.8;"/>
     </g>
     <g id="line2d_32">
      <g>
       <use style="stroke:#000000;stroke-width:0.8;" x="108" xlink:href="#m11a2686248" y="100.370345"/>
      </g>
     </g>
     <g id="text_17">
      <!-- 10 -->
      <g transform="translate(88.275 104.169564)scale(0.1 -0.1)">
       <use xlink:href="#DejaVuSans-31"/>
       <use x="63.623047" xlink:href="#DejaVuSans-30"/>
      </g>
     </g>
    </g>
    <g id="text_18">
     <!-- y -->
     <g transform="translate(73.815625 194.119375)rotate(-90)scale(0.1 -0.1)">
      <defs>
       <path d="M 2059 -325 
Q 1816 -950 1584 -1140 
Q 1353 -1331 966 -1331 
L 506 -1331 
L 506 -850 
L 844 -850 
Q 1081 -850 1212 -737 
Q 1344 -625 1503 -206 
L 1606 56 
L 191 3500 
L 800 3500 
L 1894 763 
L 2988 3500 
L 3597 3500 
L 2059 -325 
z
" id="DejaVuSans-79" transform="scale(0.015625)"/>
      </defs>
      <use xlink:href="#DejaVuSans-79"/>
     </g>
    </g>
   </g>
   <g id="line2d_33">
    <path clip-path="url(#p52bb399e5f)" d="M 138.436364 166.340672 
L 144.585124 166.340672 
L 150.733884 166.340672 
L 156.882645 166.340672 
L 163.031405 166.340672 
L 169.180165 166.340672 
L 175.328926 166.340672 
L 181.477686 166.340672 
L 187.626446 166.340672 
L 193.775207 166.340672 
L 199.923967 166.340672 
L 206.072727 166.340672 
L 212.221488 166.340672 
L 218.370248 166.340672 
L 224.519008 166.340672 
L 230.667769 166.340672 
L 236.816529 166.340672 
L 242.965289 166.340672 
L 249.11405 166.340672 
L 255.26281 166.340672 
L 261.41157 166.340672 
L 267.560331 166.340672 
L 273.709091 166.340672 
L 279.857851 166.340672 
L 286.006612 166.340672 
L 292.155372 166.340672 
L 298.304132 166.340672 
L 304.452893 166.340672 
L 310.601653 166.340672 
L 316.750413 166.340672 
L 322.899174 166.340672 
L 329.047934 166.340672 
L 335.196694 166.340672 
L 341.345455 166.340672 
L 347.494215 166.340672 
L 353.642975 166.340672 
L 359.791736 166.340672 
L 365.940496 166.340672 
L 372.089256 166.340672 
L 378.238017 166.340672 
L 384.386777 166.340672 
L 390.535537 166.340672 
L 396.684298 166.340672 
L 402.833058 166.340672 
L 408.981818 166.340672 
L 415.130579 166.340672 
L 421.279339 166.340672 
L 427.428099 166.340672 
L 433.57686 166.340672 
L 439.72562 166.340672 
L 445.87438 166.340672 
L 452.02314 166.340672 
L 458.171901 166.340672 
L 464.320661 166.340672 
L 470.469421 166.340672 
L 476.618182 166.340672 
L 482.766942 166.340672 
L 488.915702 166.340672 
L 495.064463 166.340672 
L 501.213223 166.340672 
L 507.361983 166.340672 
L 513.510744 166.340672 
L 519.659504 166.340672 
L 525.808264 166.340672 
L 531.957025 166.340672 
L 538.105785 166.340672 
L 544.254545 166.340672 
L 550.403306 166.340672 
L 556.552066 166.340672 
L 562.700826 166.340672 
L 568.849587 166.340672 
L 574.998347 166.340672 
L 581.147107 166.340672 
L 587.295868 166.340672 
L 593.444628 166.340672 
L 599.593388 166.340672 
L 605.742149 166.340672 
L 611.890909 166.340672 
L 618.039669 166.340672 
L 624.18843 166.340672 
L 630.33719 166.340672 
L 636.48595 166.340672 
L 642.634711 166.340672 
L 648.783471 166.340672 
L 654.932231 166.340672 
L 661.080992 166.340672 
L 667.229752 166.340672 
L 673.378512 166.340672 
L 679.527273 166.340672 
L 685.676033 166.340672 
L 691.824793 166.340672 
L 697.973554 166.340672 
L 704.122314 166.340672 
L 710.271074 166.340672 
L 716.419835 166.340672 
L 722.568595 166.340672 
L 728.717355 166.340672 
L 734.866116 166.340672 
L 741.014876 166.340672 
L 747.163636 166.340672 
" style="fill:none;stroke:#000000;stroke-linecap:square;stroke-width:1.5;"/>
   </g>
   <g id="line2d_34">
    <path clip-path="url(#p52bb399e5f)" d="M 138.436364 179.534737 
L 144.585124 179.268191 
L 150.733884 179.001644 
L 156.882645 178.735097 
L 163.031405 178.46855 
L 169.180165 178.202004 
L 175.328926 177.935457 
L 181.477686 177.66891 
L 187.626446 177.402363 
L 193.775207 177.135816 
L 199.923967 176.86927 
L 206.072727 176.602723 
L 212.221488 176.336176 
L 218.370248 176.069629 
L 224.519008 175.803083 
L 230.667769 175.536536 
L 236.816529 175.269989 
L 242.965289 175.003442 
L 249.11405 174.736895 
L 255.26281 174.470349 
L 261.41157 174.203802 
L 267.560331 173.937255 
L 273.709091 173.670708 
L 279.857851 173.404162 
L 286.006612 173.137615 
L 292.155372 172.871068 
L 298.304132 172.604521 
L 304.452893 172.337974 
L 310.601653 172.071428 
L 316.750413 171.804881 
L 322.899174 171.538334 
L 329.047934 171.271787 
L 335.196694 171.005241 
L 341.345455 170.738694 
L 347.494215 170.472147 
L 353.642975 170.2056 
L 359.791736 169.939053 
L 365.940496 169.672507 
L 372.089256 169.40596 
L 378.238017 169.139413 
L 384.386777 168.872866 
L 390.535537 168.60632 
L 396.684298 168.339773 
L 402.833058 168.073226 
L 408.981818 167.806679 
L 415.130579 167.540132 
L 421.279339 167.273586 
L 427.428099 167.007039 
L 433.57686 166.740492 
L 439.72562 166.473945 
L 445.87438 166.207399 
L 452.02314 165.940852 
L 458.171901 165.674305 
L 464.320661 165.407758 
L 470.469421 165.141212 
L 476.618182 164.874665 
L 482.766942 164.608118 
L 488.915702 164.341571 
L 495.064463 164.075024 
L 501.213223 163.808478 
L 507.361983 163.541931 
L 513.510744 163.275384 
L 519.659504 163.008837 
L 525.808264 162.742291 
L 531.957025 162.475744 
L 538.105785 162.209197 
L 544.254545 161.94265 
L 550.403306 161.676103 
L 556.552066 161.409557 
L 562.700826 161.14301 
L 568.849587 160.876463 
L 574.998347 160.609916 
L 581.147107 160.34337 
L 587.295868 160.076823 
L 593.444628 159.810276 
L 599.593388 159.543729 
L 605.742149 159.277182 
L 611.890909 159.010636 
L 618.039669 158.744089 
L 624.18843 158.477542 
L 630.33719 158.210995 
L 636.48595 157.944449 
L 642.634711 157.677902 
L 648.783471 157.411355 
L 654.932231 157.144808 
L 661.080992 156.878261 
L 667.229752 156.611715 
L 673.378512 156.345168 
L 679.527273 156.078621 
L 685.676033 155.812074 
L 691.824793 155.545528 
L 697.973554 155.278981 
L 704.122314 155.012434 
L 710.271074 154.745887 
L 716.419835 154.47934 
L 722.568595 154.212794 
L 728.717355 153.946247 
L 734.866116 153.6797 
L 741.014876 153.413153 
L 747.163636 153.146607 
" style="fill:none;stroke:#008000;stroke-linecap:square;stroke-width:1.5;"/>
   </g>
   <g id="line2d_35">
    <path clip-path="url(#p52bb399e5f)" d="M 138.436364 294.250909 
L 144.585124 288.653165 
L 150.733884 283.258482 
L 156.882645 278.061221 
L 163.031405 273.055865 
L 169.180165 268.237011 
L 175.328926 263.599368 
L 181.477686 259.137748 
L 187.626446 254.84707 
L 193.775207 250.722345 
L 199.923967 246.758684 
L 206.072727 242.951283 
L 212.221488 239.295428 
L 218.370248 235.786487 
L 224.519008 232.41991 
L 230.667769 229.191221 
L 236.816529 226.09602 
L 242.965289 223.129976 
L 249.11405 220.288828 
L 255.26281 217.568379 
L 261.41157 214.964495 
L 267.560331 212.473103 
L 273.709091 210.090188 
L 279.857851 207.81179 
L 286.006612 205.634001 
L 292.155372 203.552968 
L 298.304132 201.564883 
L 304.452893 199.66599 
L 310.601653 197.852574 
L 316.750413 196.120965 
L 322.899174 194.467538 
L 329.047934 192.888703 
L 335.196694 191.380914 
L 341.345455 189.940657 
L 347.494215 188.564458 
L 353.642975 187.248875 
L 359.791736 185.990498 
L 365.940496 184.785952 
L 372.089256 183.63189 
L 378.238017 182.524993 
L 384.386777 181.461972 
L 390.535537 180.439565 
L 396.684298 179.454534 
L 402.833058 178.503669 
L 408.981818 177.583779 
L 415.130579 176.6917 
L 421.279339 175.824288 
L 427.428099 174.978422 
L 433.57686 174.150998 
L 439.72562 173.338935 
L 445.87438 172.539167 
L 452.02314 171.74865 
L 458.171901 170.964355 
L 464.320661 170.183268 
L 470.469421 169.402395 
L 476.618182 168.618753 
L 482.766942 167.829376 
L 488.915702 167.031313 
L 495.064463 166.221624 
L 501.213223 165.397383 
L 507.361983 164.555677 
L 513.510744 163.693605 
L 519.659504 162.808276 
L 525.808264 161.896813 
L 531.957025 160.956347 
L 538.105785 159.984019 
L 544.254545 158.976982 
L 550.403306 157.932396 
L 556.552066 156.847433 
L 562.700826 155.71927 
L 568.849587 154.545096 
L 574.998347 153.322104 
L 581.147107 152.047499 
L 587.295868 150.718491 
L 593.444628 149.332296 
L 599.593388 147.886139 
L 605.742149 146.377251 
L 611.890909 144.802869 
L 618.039669 143.160235 
L 624.18843 141.446598 
L 630.33719 139.659214 
L 636.48595 137.795341 
L 642.634711 135.852244 
L 648.783471 133.827193 
L 654.932231 131.717462 
L 661.080992 129.520331 
L 667.229752 127.233084 
L 673.378512 124.853006 
L 679.527273 122.37739 
L 685.676033 119.803533 
L 691.824793 117.128731 
L 697.973554 114.350289 
L 704.122314 111.465513 
L 710.271074 108.471712 
L 716.419835 105.366198 
L 722.568595 102.146288 
L 728.717355 98.809299 
L 734.866116 95.352554 
L 741.014876 91.773375 
L 747.163636 88.069091 
" style="fill:none;stroke:#0000ff;stroke-linecap:square;stroke-width:1.5;"/>
   </g>
   <g id="line2d_36">
    <path clip-path="url(#p52bb399e5f)" d="M 138.436364 115.579619 
L 144.585124 118.111944 
L 150.733884 120.542739 
L 156.882645 122.874823 
L 163.031405 125.110954 
L 169.180165 127.253834 
L 175.328926 129.306109 
L 181.477686 131.270372 
L 187.626446 133.149164 
L 193.775207 134.94498 
L 199.923967 136.660264 
L 206.072727 138.297418 
L 212.221488 139.858798 
L 218.370248 141.346722 
L 224.519008 142.763463 
L 230.667769 144.111261 
L 236.816529 145.392315 
L 242.965289 146.60879 
L 249.11405 147.762818 
L 255.26281 148.856495 
L 261.41157 149.89189 
L 267.560331 150.871039 
L 273.709091 151.79595 
L 279.857851 152.668603 
L 286.006612 153.49095 
L 292.155372 154.26492 
L 298.304132 154.992416 
L 304.452893 155.675316 
L 310.601653 156.315477 
L 316.750413 156.914734 
L 322.899174 157.474901 
L 329.047934 157.997772 
L 335.196694 158.48512 
L 341.345455 158.938701 
L 347.494215 159.360254 
L 353.642975 159.751499 
L 359.791736 160.11414 
L 365.940496 160.449867 
L 372.089256 160.760351 
L 378.238017 161.047253 
L 384.386777 161.312216 
L 390.535537 161.556873 
L 396.684298 161.782842 
L 402.833058 161.991728 
L 408.981818 162.185126 
L 415.130579 162.364619 
L 421.279339 162.531778 
L 427.428099 162.688164 
L 433.57686 162.835329 
L 439.72562 162.974814 
L 445.87438 163.108151 
L 452.02314 163.236863 
L 458.171901 163.362464 
L 464.320661 163.48646 
L 470.469421 163.61035 
L 476.618182 163.735624 
L 482.766942 163.863766 
L 488.915702 163.996251 
L 495.064463 164.134549 
L 501.213223 164.280122 
L 507.361983 164.434428 
L 513.510744 164.598918 
L 519.659504 164.775035 
L 525.808264 164.96422 
L 531.957025 165.167907 
L 538.105785 165.387524 
L 544.254545 165.624495 
L 550.403306 165.880241 
L 556.552066 166.156176 
L 562.700826 166.453711 
L 568.849587 166.774251 
L 574.998347 167.1192 
L 581.147107 167.489956 
L 587.295868 167.887913 
L 593.444628 168.314464 
L 599.593388 168.770996 
L 605.742149 169.258893 
L 611.890909 169.779537 
L 618.039669 170.334307 
L 624.18843 170.924579 
L 630.33719 171.551724 
L 636.48595 172.217114 
L 642.634711 172.922116 
L 648.783471 173.668095 
L 654.932231 174.456413 
L 661.080992 175.288432 
L 667.229752 176.165509 
L 673.378512 177.089001 
L 679.527273 178.060262 
L 685.676033 179.080644 
L 691.824793 180.151498 
L 697.973554 181.274172 
L 704.122314 182.450014 
L 710.271074 183.680367 
L 716.419835 184.966577 
L 722.568595 186.309986 
L 728.717355 187.711933 
L 734.866116 189.173759 
L 741.014876 190.696802 
L 747.163636 192.282397 
" style="fill:none;stroke:#bf00bf;stroke-linecap:square;stroke-width:1.5;"/>
   </g>
   <g id="patch_3">
    <path d="M 108 304.56 
L 108 77.76 
" style="fill:none;stroke:#000000;stroke-linecap:square;stroke-linejoin:miter;stroke-width:0.8;"/>
   </g>
   <g id="patch_4">
    <path d="M 777.6 304.56 
L 777.6 77.76 
" style="fill:none;stroke:#000000;stroke-linecap:square;stroke-linejoin:miter;stroke-width:0.8;"/>
   </g>
   <g id="patch_5">
    <path d="M 108 304.56 
L 777.6 304.56 
" style="fill:none;stroke:#000000;stroke-linecap:square;stroke-linejoin:miter;stroke-width:0.8;"/>
   </g>
   <g id="patch_6">
    <path d="M 108 77.76 
L 777.6 77.76 
" style="fill:none;stroke:#000000;stroke-linecap:square;stroke-linejoin:miter;stroke-width:0.8;"/>
   </g>
   <g id="legend_1">
    <g id="patch_7">
     <path d="M 701.554688 299.56 
L 770.6 299.56 
Q 772.6 299.56 772.6 297.56 
L 772.6 225.169375 
Q 772.6 223.169375 770.6 223.169375 
L 701.554688 223.169375 
Q 699.554688 223.169375 699.554688 225.169375 
L 699.554688 297.56 
Q 699.554688 299.56 701.554688 299.56 
z
" style="fill:#ffffff;opacity:0.8;stroke:#cccccc;stroke-linejoin:miter;"/>
    </g>
    <g id="line2d_37">
     <path d="M 703.554688 231.267812 
L 723.554688 231.267812 
" style="fill:none;stroke:#000000;stroke-linecap:square;stroke-width:1.5;"/>
    </g>
    <g id="line2d_38"/>
    <g id="text_19">
     <!-- y=0 -->
     <g transform="translate(731.554688 234.767812)scale(0.1 -0.1)">
      <defs>
       <path d="M 678 2906 
L 4684 2906 
L 4684 2381 
L 678 2381 
L 678 2906 
z
M 678 1631 
L 4684 1631 
L 4684 1100 
L 678 1100 
L 678 1631 
z
" id="DejaVuSans-3d" transform="scale(0.015625)"/>
      </defs>
      <use xlink:href="#DejaVuSans-79"/>
      <use x="59.179688" xlink:href="#DejaVuSans-3d"/>
      <use x="142.96875" xlink:href="#DejaVuSans-30"/>
     </g>
    </g>
    <g id="line2d_39">
     <path d="M 703.554688 245.945938 
L 723.554688 245.945938 
" style="fill:none;stroke:#008000;stroke-linecap:square;stroke-width:1.5;"/>
    </g>
    <g id="line2d_40"/>
    <g id="text_20">
     <!-- y=x -->
     <g transform="translate(731.554688 249.445938)scale(0.1 -0.1)">
      <use xlink:href="#DejaVuSans-79"/>
      <use x="59.179688" xlink:href="#DejaVuSans-3d"/>
      <use x="142.96875" xlink:href="#DejaVuSans-78"/>
     </g>
    </g>
    <g id="line2d_41">
     <path d="M 703.554688 260.624062 
L 723.554688 260.624062 
" style="fill:none;stroke:#0000ff;stroke-linecap:square;stroke-width:1.5;"/>
    </g>
    <g id="line2d_42"/>
    <g id="text_21">
     <!-- f(x) -->
     <g transform="translate(731.554688 264.124062)scale(0.1 -0.1)">
      <defs>
       <path d="M 2375 4863 
L 2375 4384 
L 1825 4384 
Q 1516 4384 1395 4259 
Q 1275 4134 1275 3809 
L 1275 3500 
L 2222 3500 
L 2222 3053 
L 1275 3053 
L 1275 0 
L 697 0 
L 697 3053 
L 147 3053 
L 147 3500 
L 697 3500 
L 697 3744 
Q 697 4328 969 4595 
Q 1241 4863 1831 4863 
L 2375 4863 
z
" id="DejaVuSans-66" transform="scale(0.015625)"/>
       <path d="M 1984 4856 
Q 1566 4138 1362 3434 
Q 1159 2731 1159 2009 
Q 1159 1288 1364 580 
Q 1569 -128 1984 -844 
L 1484 -844 
Q 1016 -109 783 600 
Q 550 1309 550 2009 
Q 550 2706 781 3412 
Q 1013 4119 1484 4856 
L 1984 4856 
z
" id="DejaVuSans-28" transform="scale(0.015625)"/>
       <path d="M 513 4856 
L 1013 4856 
Q 1481 4119 1714 3412 
Q 1947 2706 1947 2009 
Q 1947 1309 1714 600 
Q 1481 -109 1013 -844 
L 513 -844 
Q 928 -128 1133 580 
Q 1338 1288 1338 2009 
Q 1338 2731 1133 3434 
Q 928 4138 513 4856 
z
" id="DejaVuSans-29" transform="scale(0.015625)"/>
      </defs>
      <use xlink:href="#DejaVuSans-66"/>
      <use x="35.205078" xlink:href="#DejaVuSans-28"/>
      <use x="74.21875" xlink:href="#DejaVuSans-78"/>
      <use x="133.398438" xlink:href="#DejaVuSans-29"/>
     </g>
    </g>
    <g id="line2d_43">
     <path d="M 703.554688 275.302188 
L 723.554688 275.302188 
" style="fill:none;stroke:#bf00bf;stroke-linecap:square;stroke-width:1.5;"/>
    </g>
    <g id="line2d_44"/>
    <g id="text_22">
     <!-- g(x) -->
     <g transform="translate(731.554688 278.802188)scale(0.1 -0.1)">
      <defs>
       <path d="M 2906 1791 
Q 2906 2416 2648 2759 
Q 2391 3103 1925 3103 
Q 1463 3103 1205 2759 
Q 947 2416 947 1791 
Q 947 1169 1205 825 
Q 1463 481 1925 481 
Q 2391 481 2648 825 
Q 2906 1169 2906 1791 
z
M 3481 434 
Q 3481 -459 3084 -895 
Q 2688 -1331 1869 -1331 
Q 1566 -1331 1297 -1286 
Q 1028 -1241 775 -1147 
L 775 -588 
Q 1028 -725 1275 -790 
Q 1522 -856 1778 -856 
Q 2344 -856 2625 -561 
Q 2906 -266 2906 331 
L 2906 616 
Q 2728 306 2450 153 
Q 2172 0 1784 0 
Q 1141 0 747 490 
Q 353 981 353 1791 
Q 353 2603 747 3093 
Q 1141 3584 1784 3584 
Q 2172 3584 2450 3431 
Q 2728 3278 2906 2969 
L 2906 3500 
L 3481 3500 
L 3481 434 
z
" id="DejaVuSans-67" transform="scale(0.015625)"/>
      </defs>
      <use xlink:href="#DejaVuSans-67"/>
      <use x="63.476562" xlink:href="#DejaVuSans-28"/>
      <use x="102.490234" xlink:href="#DejaVuSans-78"/>
      <use x="161.669922" xlink:href="#DejaVuSans-29"/>
     </g>
    </g>
    <g id="PathCollection_2">
     <g>
      <use style="fill:#bfbf00;stroke:#bfbf00;" x="713.554688" xlink:href="#mcdd64c35fd" y="290.855312"/>
     </g>
    </g>
    <g id="text_23">
     <!-- newton -->
     <g transform="translate(731.554688 293.480312)scale(0.1 -0.1)">
      <defs>
       <path d="M 3513 2113 
L 3513 0 
L 2938 0 
L 2938 2094 
Q 2938 2591 2744 2837 
Q 2550 3084 2163 3084 
Q 1697 3084 1428 2787 
Q 1159 2491 1159 1978 
L 1159 0 
L 581 0 
L 581 3500 
L 1159 3500 
L 1159 2956 
Q 1366 3272 1645 3428 
Q 1925 3584 2291 3584 
Q 2894 3584 3203 3211 
Q 3513 2838 3513 2113 
z
" id="DejaVuSans-6e" transform="scale(0.015625)"/>
       <path d="M 3597 1894 
L 3597 1613 
L 953 1613 
Q 991 1019 1311 708 
Q 1631 397 2203 397 
Q 2534 397 2845 478 
Q 3156 559 3463 722 
L 3463 178 
Q 3153 47 2828 -22 
Q 2503 -91 2169 -91 
Q 1331 -91 842 396 
Q 353 884 353 1716 
Q 353 2575 817 3079 
Q 1281 3584 2069 3584 
Q 2775 3584 3186 3129 
Q 3597 2675 3597 1894 
z
M 3022 2063 
Q 3016 2534 2758 2815 
Q 2500 3097 2075 3097 
Q 1594 3097 1305 2825 
Q 1016 2553 972 2059 
L 3022 2063 
z
" id="DejaVuSans-65" transform="scale(0.015625)"/>
       <path d="M 269 3500 
L 844 3500 
L 1563 769 
L 2278 3500 
L 2956 3500 
L 3675 769 
L 4391 3500 
L 4966 3500 
L 4050 0 
L 3372 0 
L 2619 2869 
L 1863 0 
L 1184 0 
L 269 3500 
z
" id="DejaVuSans-77" transform="scale(0.015625)"/>
       <path d="M 1172 4494 
L 1172 3500 
L 2356 3500 
L 2356 3053 
L 1172 3053 
L 1172 1153 
Q 1172 725 1289 603 
Q 1406 481 1766 481 
L 2356 481 
L 2356 0 
L 1766 0 
Q 1100 0 847 248 
Q 594 497 594 1153 
L 594 3053 
L 172 3053 
L 172 3500 
L 594 3500 
L 594 4494 
L 1172 4494 
z
" id="DejaVuSans-74" transform="scale(0.015625)"/>
       <path d="M 1959 3097 
Q 1497 3097 1228 2736 
Q 959 2375 959 1747 
Q 959 1119 1226 758 
Q 1494 397 1959 397 
Q 2419 397 2687 759 
Q 2956 1122 2956 1747 
Q 2956 2369 2687 2733 
Q 2419 3097 1959 3097 
z
M 1959 3584 
Q 2709 3584 3137 3096 
Q 3566 2609 3566 1747 
Q 3566 888 3137 398 
Q 2709 -91 1959 -91 
Q 1206 -91 779 398 
Q 353 888 353 1747 
Q 353 2609 779 3096 
Q 1206 3584 1959 3584 
z
" id="DejaVuSans-6f" transform="scale(0.015625)"/>
      </defs>
      <use xlink:href="#DejaVuSans-6e"/>
      <use x="63.378906" xlink:href="#DejaVuSans-65"/>
      <use x="124.902344" xlink:href="#DejaVuSans-77"/>
      <use x="206.689453" xlink:href="#DejaVuSans-74"/>
      <use x="245.898438" xlink:href="#DejaVuSans-6f"/>
      <use x="307.080078" xlink:href="#DejaVuSans-6e"/>
     </g>
    </g>
   </g>
  </g>
  <g id="axes_2">
   <g id="patch_8">
    <path d="M 108 576.72 
L 777.6 576.72 
L 777.6 349.92 
L 108 349.92 
z
" style="fill:#ffffff;"/>
   </g>
   <g id="PathCollection_3">
    <defs>
     <path d="M 0 3 
C 0.795609 3 1.55874 2.683901 2.12132 2.12132 
C 2.683901 1.55874 3 0.795609 3 0 
C 3 -0.795609 2.683901 -1.55874 2.12132 -2.12132 
C 1.55874 -2.683901 0.795609 -3 0 -3 
C -0.795609 -3 -1.55874 -2.683901 -2.12132 -2.12132 
C -2.683901 -1.55874 -3 -0.795609 -3 0 
C -3 0.795609 -2.683901 1.55874 -2.12132 2.12132 
C -1.55874 2.683901 -0.795609 3 0 3 
z
" id="m5a51d3bbf8" style="stroke:#ff0000;"/>
    </defs>
    <g clip-path="url(#p43e3cd508e)">
     <use style="fill:#ff0000;stroke:#ff0000;" x="594.981818" xlink:href="#m5a51d3bbf8" y="421.136487"/>
     <use style="fill:#ff0000;stroke:#ff0000;" x="394.701372" xlink:href="#m5a51d3bbf8" y="451.928312"/>
     <use style="fill:#ff0000;stroke:#ff0000;" x="549.577269" xlink:href="#m5a51d3bbf8" y="430.235014"/>
     <use style="fill:#ff0000;stroke:#ff0000;" x="454.240245" xlink:href="#m5a51d3bbf8" y="443.625292"/>
     <use style="fill:#ff0000;stroke:#ff0000;" x="513.348177" xlink:href="#m5a51d3bbf8" y="435.876684"/>
     <use style="fill:#ff0000;stroke:#ff0000;" x="483.082804" xlink:href="#m5a51d3bbf8" y="439.948617"/>
     <use style="fill:#ff0000;stroke:#ff0000;" x="499.783559" xlink:href="#m5a51d3bbf8" y="437.750481"/>
     <use style="fill:#ff0000;stroke:#ff0000;" x="491.130771" xlink:href="#m5a51d3bbf8" y="438.901118"/>
     <use style="fill:#ff0000;stroke:#ff0000;" x="495.749562" xlink:href="#m5a51d3bbf8" y="438.29056"/>
     <use style="fill:#ff0000;stroke:#ff0000;" x="493.326108" xlink:href="#m5a51d3bbf8" y="438.611885"/>
     <use style="fill:#ff0000;stroke:#ff0000;" x="494.60885" xlink:href="#m5a51d3bbf8" y="438.442084"/>
    </g>
   </g>
   <g id="matplotlib.axis_3">
    <g id="xtick_10">
     <g id="line2d_45">
      <path clip-path="url(#p43e3cd508e)" d="M 138.436364 576.72 
L 138.436364 349.92 
" style="fill:none;stroke:#b0b0b0;stroke-linecap:square;stroke-width:0.8;"/>
     </g>
     <g id="line2d_46">
      <g>
       <use style="stroke:#000000;stroke-width:0.8;" x="138.436364" xlink:href="#m7f7030691c" y="576.72"/>
      </g>
     </g>
     <g id="text_24">
      <!-- −2.0 -->
      <g transform="translate(126.294957 591.318438)scale(0.1 -0.1)">
       <use xlink:href="#DejaVuSans-2212"/>
       <use x="83.789062" xlink:href="#DejaVuSans-32"/>
       <use x="147.412109" xlink:href="#DejaVuSans-2e"/>
       <use x="179.199219" xlink:href="#DejaVuSans-30"/>
      </g>
     </g>
    </g>
    <g id="xtick_11">
     <g id="line2d_47">
      <path clip-path="url(#p43e3cd508e)" d="M 214.527273 576.72 
L 214.527273 349.92 
" style="fill:none;stroke:#b0b0b0;stroke-linecap:square;stroke-width:0.8;"/>
     </g>
     <g id="line2d_48">
      <g>
       <use style="stroke:#000000;stroke-width:0.8;" x="214.527273" xlink:href="#m7f7030691c" y="576.72"/>
      </g>
     </g>
     <g id="text_25">
      <!-- −1.5 -->
      <g transform="translate(202.385866 591.318438)scale(0.1 -0.1)">
       <use xlink:href="#DejaVuSans-2212"/>
       <use x="83.789062" xlink:href="#DejaVuSans-31"/>
       <use x="147.412109" xlink:href="#DejaVuSans-2e"/>
       <use x="179.199219" xlink:href="#DejaVuSans-35"/>
      </g>
     </g>
    </g>
    <g id="xtick_12">
     <g id="line2d_49">
      <path clip-path="url(#p43e3cd508e)" d="M 290.618182 576.72 
L 290.618182 349.92 
" style="fill:none;stroke:#b0b0b0;stroke-linecap:square;stroke-width:0.8;"/>
     </g>
     <g id="line2d_50">
      <g>
       <use style="stroke:#000000;stroke-width:0.8;" x="290.618182" xlink:href="#m7f7030691c" y="576.72"/>
      </g>
     </g>
     <g id="text_26">
      <!-- −1.0 -->
      <g transform="translate(278.476776 591.318438)scale(0.1 -0.1)">
       <use xlink:href="#DejaVuSans-2212"/>
       <use x="83.789062" xlink:href="#DejaVuSans-31"/>
       <use x="147.412109" xlink:href="#DejaVuSans-2e"/>
       <use x="179.199219" xlink:href="#DejaVuSans-30"/>
      </g>
     </g>
    </g>
    <g id="xtick_13">
     <g id="line2d_51">
      <path clip-path="url(#p43e3cd508e)" d="M 366.709091 576.72 
L 366.709091 349.92 
" style="fill:none;stroke:#b0b0b0;stroke-linecap:square;stroke-width:0.8;"/>
     </g>
     <g id="line2d_52">
      <g>
       <use style="stroke:#000000;stroke-width:0.8;" x="366.709091" xlink:href="#m7f7030691c" y="576.72"/>
      </g>
     </g>
     <g id="text_27">
      <!-- −0.5 -->
      <g transform="translate(354.567685 591.318438)scale(0.1 -0.1)">
       <use xlink:href="#DejaVuSans-2212"/>
       <use x="83.789062" xlink:href="#DejaVuSans-30"/>
       <use x="147.412109" xlink:href="#DejaVuSans-2e"/>
       <use x="179.199219" xlink:href="#DejaVuSans-35"/>
      </g>
     </g>
    </g>
    <g id="xtick_14">
     <g id="line2d_53">
      <path clip-path="url(#p43e3cd508e)" d="M 442.8 576.72 
L 442.8 349.92 
" style="fill:none;stroke:#b0b0b0;stroke-linecap:square;stroke-width:0.8;"/>
     </g>
     <g id="line2d_54">
      <g>
       <use style="stroke:#000000;stroke-width:0.8;" x="442.8" xlink:href="#m7f7030691c" y="576.72"/>
      </g>
     </g>
     <g id="text_28">
      <!-- 0.0 -->
      <g transform="translate(434.848437 591.318438)scale(0.1 -0.1)">
       <use xlink:href="#DejaVuSans-30"/>
       <use x="63.623047" xlink:href="#DejaVuSans-2e"/>
       <use x="95.410156" xlink:href="#DejaVuSans-30"/>
      </g>
     </g>
    </g>
    <g id="xtick_15">
     <g id="line2d_55">
      <path clip-path="url(#p43e3cd508e)" d="M 518.890909 576.72 
L 518.890909 349.92 
" style="fill:none;stroke:#b0b0b0;stroke-linecap:square;stroke-width:0.8;"/>
     </g>
     <g id="line2d_56">
      <g>
       <use style="stroke:#000000;stroke-width:0.8;" x="518.890909" xlink:href="#m7f7030691c" y="576.72"/>
      </g>
     </g>
     <g id="text_29">
      <!-- 0.5 -->
      <g transform="translate(510.939347 591.318438)scale(0.1 -0.1)">
       <use xlink:href="#DejaVuSans-30"/>
       <use x="63.623047" xlink:href="#DejaVuSans-2e"/>
       <use x="95.410156" xlink:href="#DejaVuSans-35"/>
      </g>
     </g>
    </g>
    <g id="xtick_16">
     <g id="line2d_57">
      <path clip-path="url(#p43e3cd508e)" d="M 594.981818 576.72 
L 594.981818 349.92 
" style="fill:none;stroke:#b0b0b0;stroke-linecap:square;stroke-width:0.8;"/>
     </g>
     <g id="line2d_58">
      <g>
       <use style="stroke:#000000;stroke-width:0.8;" x="594.981818" xlink:href="#m7f7030691c" y="576.72"/>
      </g>
     </g>
     <g id="text_30">
      <!-- 1.0 -->
      <g transform="translate(587.030256 591.318438)scale(0.1 -0.1)">
       <use xlink:href="#DejaVuSans-31"/>
       <use x="63.623047" xlink:href="#DejaVuSans-2e"/>
       <use x="95.410156" xlink:href="#DejaVuSans-30"/>
      </g>
     </g>
    </g>
    <g id="xtick_17">
     <g id="line2d_59">
      <path clip-path="url(#p43e3cd508e)" d="M 671.072727 576.72 
L 671.072727 349.92 
" style="fill:none;stroke:#b0b0b0;stroke-linecap:square;stroke-width:0.8;"/>
     </g>
     <g id="line2d_60">
      <g>
       <use style="stroke:#000000;stroke-width:0.8;" x="671.072727" xlink:href="#m7f7030691c" y="576.72"/>
      </g>
     </g>
     <g id="text_31">
      <!-- 1.5 -->
      <g transform="translate(663.121165 591.318438)scale(0.1 -0.1)">
       <use xlink:href="#DejaVuSans-31"/>
       <use x="63.623047" xlink:href="#DejaVuSans-2e"/>
       <use x="95.410156" xlink:href="#DejaVuSans-35"/>
      </g>
     </g>
    </g>
    <g id="xtick_18">
     <g id="line2d_61">
      <path clip-path="url(#p43e3cd508e)" d="M 747.163636 576.72 
L 747.163636 349.92 
" style="fill:none;stroke:#b0b0b0;stroke-linecap:square;stroke-width:0.8;"/>
     </g>
     <g id="line2d_62">
      <g>
       <use style="stroke:#000000;stroke-width:0.8;" x="747.163636" xlink:href="#m7f7030691c" y="576.72"/>
      </g>
     </g>
     <g id="text_32">
      <!-- 2.0 -->
      <g transform="translate(739.212074 591.318438)scale(0.1 -0.1)">
       <use xlink:href="#DejaVuSans-32"/>
       <use x="63.623047" xlink:href="#DejaVuSans-2e"/>
       <use x="95.410156" xlink:href="#DejaVuSans-30"/>
      </g>
     </g>
    </g>
    <g id="text_33">
     <!-- x -->
     <g transform="translate(439.840625 604.996562)scale(0.1 -0.1)">
      <use xlink:href="#DejaVuSans-78"/>
     </g>
    </g>
   </g>
   <g id="matplotlib.axis_4">
    <g id="ytick_8">
     <g id="line2d_63">
      <path clip-path="url(#p43e3cd508e)" d="M 108 570.441326 
L 777.6 570.441326 
" style="fill:none;stroke:#b0b0b0;stroke-linecap:square;stroke-width:0.8;"/>
     </g>
     <g id="line2d_64">
      <g>
       <use style="stroke:#000000;stroke-width:0.8;" x="108" xlink:href="#m11a2686248" y="570.441326"/>
      </g>
     </g>
     <g id="text_34">
      <!-- −20 -->
      <g transform="translate(79.895313 574.240545)scale(0.1 -0.1)">
       <use xlink:href="#DejaVuSans-2212"/>
       <use x="83.789062" xlink:href="#DejaVuSans-32"/>
       <use x="147.412109" xlink:href="#DejaVuSans-30"/>
      </g>
     </g>
    </g>
    <g id="ytick_9">
     <g id="line2d_65">
      <path clip-path="url(#p43e3cd508e)" d="M 108 537.456162 
L 777.6 537.456162 
" style="fill:none;stroke:#b0b0b0;stroke-linecap:square;stroke-width:0.8;"/>
     </g>
     <g id="line2d_66">
      <g>
       <use style="stroke:#000000;stroke-width:0.8;" x="108" xlink:href="#m11a2686248" y="537.456162"/>
      </g>
     </g>
     <g id="text_35">
      <!-- −15 -->
      <g transform="translate(79.895313 541.255381)scale(0.1 -0.1)">
       <use xlink:href="#DejaVuSans-2212"/>
       <use x="83.789062" xlink:href="#DejaVuSans-31"/>
       <use x="147.412109" xlink:href="#DejaVuSans-35"/>
      </g>
     </g>
    </g>
    <g id="ytick_10">
     <g id="line2d_67">
      <path clip-path="url(#p43e3cd508e)" d="M 108 504.470999 
L 777.6 504.470999 
" style="fill:none;stroke:#b0b0b0;stroke-linecap:square;stroke-width:0.8;"/>
     </g>
     <g id="line2d_68">
      <g>
       <use style="stroke:#000000;stroke-width:0.8;" x="108" xlink:href="#m11a2686248" y="504.470999"/>
      </g>
     </g>
     <g id="text_36">
      <!-- −10 -->
      <g transform="translate(79.895313 508.270218)scale(0.1 -0.1)">
       <use xlink:href="#DejaVuSans-2212"/>
       <use x="83.789062" xlink:href="#DejaVuSans-31"/>
       <use x="147.412109" xlink:href="#DejaVuSans-30"/>
      </g>
     </g>
    </g>
    <g id="ytick_11">
     <g id="line2d_69">
      <path clip-path="url(#p43e3cd508e)" d="M 108 471.485836 
L 777.6 471.485836 
" style="fill:none;stroke:#b0b0b0;stroke-linecap:square;stroke-width:0.8;"/>
     </g>
     <g id="line2d_70">
      <g>
       <use style="stroke:#000000;stroke-width:0.8;" x="108" xlink:href="#m11a2686248" y="471.485836"/>
      </g>
     </g>
     <g id="text_37">
      <!-- −5 -->
      <g transform="translate(86.257812 475.285054)scale(0.1 -0.1)">
       <use xlink:href="#DejaVuSans-2212"/>
       <use x="83.789062" xlink:href="#DejaVuSans-35"/>
      </g>
     </g>
    </g>
    <g id="ytick_12">
     <g id="line2d_71">
      <path clip-path="url(#p43e3cd508e)" d="M 108 438.500672 
L 777.6 438.500672 
" style="fill:none;stroke:#b0b0b0;stroke-linecap:square;stroke-width:0.8;"/>
     </g>
     <g id="line2d_72">
      <g>
       <use style="stroke:#000000;stroke-width:0.8;" x="108" xlink:href="#m11a2686248" y="438.500672"/>
      </g>
     </g>
     <g id="text_38">
      <!-- 0 -->
      <g transform="translate(94.6375 442.299891)scale(0.1 -0.1)">
       <use xlink:href="#DejaVuSans-30"/>
      </g>
     </g>
    </g>
    <g id="ytick_13">
     <g id="line2d_73">
      <path clip-path="url(#p43e3cd508e)" d="M 108 405.515509 
L 777.6 405.515509 
" style="fill:none;stroke:#b0b0b0;stroke-linecap:square;stroke-width:0.8;"/>
     </g>
     <g id="line2d_74">
      <g>
       <use style="stroke:#000000;stroke-width:0.8;" x="108" xlink:href="#m11a2686248" y="405.515509"/>
      </g>
     </g>
     <g id="text_39">
      <!-- 5 -->
      <g transform="translate(94.6375 409.314727)scale(0.1 -0.1)">
       <use xlink:href="#DejaVuSans-35"/>
      </g>
     </g>
    </g>
    <g id="ytick_14">
     <g id="line2d_75">
      <path clip-path="url(#p43e3cd508e)" d="M 108 372.530345 
L 777.6 372.530345 
" style="fill:none;stroke:#b0b0b0;stroke-linecap:square;stroke-width:0.8;"/>
     </g>
     <g id="line2d_76">
      <g>
       <use style="stroke:#000000;stroke-width:0.8;" x="108" xlink:href="#m11a2686248" y="372.530345"/>
      </g>
     </g>
     <g id="text_40">
      <!-- 10 -->
      <g transform="translate(88.275 376.329564)scale(0.1 -0.1)">
       <use xlink:href="#DejaVuSans-31"/>
       <use x="63.623047" xlink:href="#DejaVuSans-30"/>
      </g>
     </g>
    </g>
    <g id="text_41">
     <!-- y -->
     <g transform="translate(73.815625 466.279375)rotate(-90)scale(0.1 -0.1)">
      <use xlink:href="#DejaVuSans-79"/>
     </g>
    </g>
   </g>
   <g id="line2d_77">
    <path clip-path="url(#p43e3cd508e)" d="M 138.436364 438.500672 
L 144.585124 438.500672 
L 150.733884 438.500672 
L 156.882645 438.500672 
L 163.031405 438.500672 
L 169.180165 438.500672 
L 175.328926 438.500672 
L 181.477686 438.500672 
L 187.626446 438.500672 
L 193.775207 438.500672 
L 199.923967 438.500672 
L 206.072727 438.500672 
L 212.221488 438.500672 
L 218.370248 438.500672 
L 224.519008 438.500672 
L 230.667769 438.500672 
L 236.816529 438.500672 
L 242.965289 438.500672 
L 249.11405 438.500672 
L 255.26281 438.500672 
L 261.41157 438.500672 
L 267.560331 438.500672 
L 273.709091 438.500672 
L 279.857851 438.500672 
L 286.006612 438.500672 
L 292.155372 438.500672 
L 298.304132 438.500672 
L 304.452893 438.500672 
L 310.601653 438.500672 
L 316.750413 438.500672 
L 322.899174 438.500672 
L 329.047934 438.500672 
L 335.196694 438.500672 
L 341.345455 438.500672 
L 347.494215 438.500672 
L 353.642975 438.500672 
L 359.791736 438.500672 
L 365.940496 438.500672 
L 372.089256 438.500672 
L 378.238017 438.500672 
L 384.386777 438.500672 
L 390.535537 438.500672 
L 396.684298 438.500672 
L 402.833058 438.500672 
L 408.981818 438.500672 
L 415.130579 438.500672 
L 421.279339 438.500672 
L 427.428099 438.500672 
L 433.57686 438.500672 
L 439.72562 438.500672 
L 445.87438 438.500672 
L 452.02314 438.500672 
L 458.171901 438.500672 
L 464.320661 438.500672 
L 470.469421 438.500672 
L 476.618182 438.500672 
L 482.766942 438.500672 
L 488.915702 438.500672 
L 495.064463 438.500672 
L 501.213223 438.500672 
L 507.361983 438.500672 
L 513.510744 438.500672 
L 519.659504 438.500672 
L 525.808264 438.500672 
L 531.957025 438.500672 
L 538.105785 438.500672 
L 544.254545 438.500672 
L 550.403306 438.500672 
L 556.552066 438.500672 
L 562.700826 438.500672 
L 568.849587 438.500672 
L 574.998347 438.500672 
L 581.147107 438.500672 
L 587.295868 438.500672 
L 593.444628 438.500672 
L 599.593388 438.500672 
L 605.742149 438.500672 
L 611.890909 438.500672 
L 618.039669 438.500672 
L 624.18843 438.500672 
L 630.33719 438.500672 
L 636.48595 438.500672 
L 642.634711 438.500672 
L 648.783471 438.500672 
L 654.932231 438.500672 
L 661.080992 438.500672 
L 667.229752 438.500672 
L 673.378512 438.500672 
L 679.527273 438.500672 
L 685.676033 438.500672 
L 691.824793 438.500672 
L 697.973554 438.500672 
L 704.122314 438.500672 
L 710.271074 438.500672 
L 716.419835 438.500672 
L 722.568595 438.500672 
L 728.717355 438.500672 
L 734.866116 438.500672 
L 741.014876 438.500672 
L 747.163636 438.500672 
" style="fill:none;stroke:#000000;stroke-linecap:square;stroke-width:1.5;"/>
   </g>
   <g id="line2d_78">
    <path clip-path="url(#p43e3cd508e)" d="M 138.436364 451.694737 
L 144.585124 451.428191 
L 150.733884 451.161644 
L 156.882645 450.895097 
L 163.031405 450.62855 
L 169.180165 450.362004 
L 175.328926 450.095457 
L 181.477686 449.82891 
L 187.626446 449.562363 
L 193.775207 449.295816 
L 199.923967 449.02927 
L 206.072727 448.762723 
L 212.221488 448.496176 
L 218.370248 448.229629 
L 224.519008 447.963083 
L 230.667769 447.696536 
L 236.816529 447.429989 
L 242.965289 447.163442 
L 249.11405 446.896895 
L 255.26281 446.630349 
L 261.41157 446.363802 
L 267.560331 446.097255 
L 273.709091 445.830708 
L 279.857851 445.564162 
L 286.006612 445.297615 
L 292.155372 445.031068 
L 298.304132 444.764521 
L 304.452893 444.497974 
L 310.601653 444.231428 
L 316.750413 443.964881 
L 322.899174 443.698334 
L 329.047934 443.431787 
L 335.196694 443.165241 
L 341.345455 442.898694 
L 347.494215 442.632147 
L 353.642975 442.3656 
L 359.791736 442.099053 
L 365.940496 441.832507 
L 372.089256 441.56596 
L 378.238017 441.299413 
L 384.386777 441.032866 
L 390.535537 440.76632 
L 396.684298 440.499773 
L 402.833058 440.233226 
L 408.981818 439.966679 
L 415.130579 439.700132 
L 421.279339 439.433586 
L 427.428099 439.167039 
L 433.57686 438.900492 
L 439.72562 438.633945 
L 445.87438 438.367399 
L 452.02314 438.100852 
L 458.171901 437.834305 
L 464.320661 437.567758 
L 470.469421 437.301212 
L 476.618182 437.034665 
L 482.766942 436.768118 
L 488.915702 436.501571 
L 495.064463 436.235024 
L 501.213223 435.968478 
L 507.361983 435.701931 
L 513.510744 435.435384 
L 519.659504 435.168837 
L 525.808264 434.902291 
L 531.957025 434.635744 
L 538.105785 434.369197 
L 544.254545 434.10265 
L 550.403306 433.836103 
L 556.552066 433.569557 
L 562.700826 433.30301 
L 568.849587 433.036463 
L 574.998347 432.769916 
L 581.147107 432.50337 
L 587.295868 432.236823 
L 593.444628 431.970276 
L 599.593388 431.703729 
L 605.742149 431.437182 
L 611.890909 431.170636 
L 618.039669 430.904089 
L 624.18843 430.637542 
L 630.33719 430.370995 
L 636.48595 430.104449 
L 642.634711 429.837902 
L 648.783471 429.571355 
L 654.932231 429.304808 
L 661.080992 429.038261 
L 667.229752 428.771715 
L 673.378512 428.505168 
L 679.527273 428.238621 
L 685.676033 427.972074 
L 691.824793 427.705528 
L 697.973554 427.438981 
L 704.122314 427.172434 
L 710.271074 426.905887 
L 716.419835 426.63934 
L 722.568595 426.372794 
L 728.717355 426.106247 
L 734.866116 425.8397 
L 741.014876 425.573153 
L 747.163636 425.306607 
" style="fill:none;stroke:#008000;stroke-linecap:square;stroke-width:1.5;"/>
   </g>
   <g id="line2d_79">
    <path clip-path="url(#p43e3cd508e)" d="M 138.436364 566.410909 
L 144.585124 560.813165 
L 150.733884 555.418482 
L 156.882645 550.221221 
L 163.031405 545.215865 
L 169.180165 540.397011 
L 175.328926 535.759368 
L 181.477686 531.297748 
L 187.626446 527.00707 
L 193.775207 522.882345 
L 199.923967 518.918684 
L 206.072727 515.111283 
L 212.221488 511.455428 
L 218.370248 507.946487 
L 224.519008 504.57991 
L 230.667769 501.351221 
L 236.816529 498.25602 
L 242.965289 495.289976 
L 249.11405 492.448828 
L 255.26281 489.728379 
L 261.41157 487.124495 
L 267.560331 484.633103 
L 273.709091 482.250188 
L 279.857851 479.97179 
L 286.006612 477.794001 
L 292.155372 475.712968 
L 298.304132 473.724883 
L 304.452893 471.82599 
L 310.601653 470.012574 
L 316.750413 468.280965 
L 322.899174 466.627538 
L 329.047934 465.048703 
L 335.196694 463.540914 
L 341.345455 462.100657 
L 347.494215 460.724458 
L 353.642975 459.408875 
L 359.791736 458.150498 
L 365.940496 456.945952 
L 372.089256 455.79189 
L 378.238017 454.684993 
L 384.386777 453.621972 
L 390.535537 452.599565 
L 396.684298 451.614534 
L 402.833058 450.663669 
L 408.981818 449.743779 
L 415.130579 448.8517 
L 421.279339 447.984288 
L 427.428099 447.138422 
L 433.57686 446.310998 
L 439.72562 445.498935 
L 445.87438 444.699167 
L 452.02314 443.90865 
L 458.171901 443.124355 
L 464.320661 442.343268 
L 470.469421 441.562395 
L 476.618182 440.778753 
L 482.766942 439.989376 
L 488.915702 439.191313 
L 495.064463 438.381624 
L 501.213223 437.557383 
L 507.361983 436.715677 
L 513.510744 435.853605 
L 519.659504 434.968276 
L 525.808264 434.056813 
L 531.957025 433.116347 
L 538.105785 432.144019 
L 544.254545 431.136982 
L 550.403306 430.092396 
L 556.552066 429.007433 
L 562.700826 427.87927 
L 568.849587 426.705096 
L 574.998347 425.482104 
L 581.147107 424.207499 
L 587.295868 422.878491 
L 593.444628 421.492296 
L 599.593388 420.046139 
L 605.742149 418.537251 
L 611.890909 416.962869 
L 618.039669 415.320235 
L 624.18843 413.606598 
L 630.33719 411.819214 
L 636.48595 409.955341 
L 642.634711 408.012244 
L 648.783471 405.987193 
L 654.932231 403.877462 
L 661.080992 401.680331 
L 667.229752 399.393084 
L 673.378512 397.013006 
L 679.527273 394.53739 
L 685.676033 391.963533 
L 691.824793 389.288731 
L 697.973554 386.510289 
L 704.122314 383.625513 
L 710.271074 380.631712 
L 716.419835 377.526198 
L 722.568595 374.306288 
L 728.717355 370.969299 
L 734.866116 367.512554 
L 741.014876 363.933375 
L 747.163636 360.229091 
" style="fill:none;stroke:#0000ff;stroke-linecap:square;stroke-width:1.5;"/>
   </g>
   <g id="line2d_80">
    <path clip-path="url(#p43e3cd508e)" d="M 138.436364 387.739619 
L 144.585124 390.271944 
L 150.733884 392.702739 
L 156.882645 395.034823 
L 163.031405 397.270954 
L 169.180165 399.413834 
L 175.328926 401.466109 
L 181.477686 403.430372 
L 187.626446 405.309164 
L 193.775207 407.10498 
L 199.923967 408.820264 
L 206.072727 410.457418 
L 212.221488 412.018798 
L 218.370248 413.506722 
L 224.519008 414.923463 
L 230.667769 416.271261 
L 236.816529 417.552315 
L 242.965289 418.76879 
L 249.11405 419.922818 
L 255.26281 421.016495 
L 261.41157 422.05189 
L 267.560331 423.031039 
L 273.709091 423.95595 
L 279.857851 424.828603 
L 286.006612 425.65095 
L 292.155372 426.42492 
L 298.304132 427.152416 
L 304.452893 427.835316 
L 310.601653 428.475477 
L 316.750413 429.074734 
L 322.899174 429.634901 
L 329.047934 430.157772 
L 335.196694 430.64512 
L 341.345455 431.098701 
L 347.494215 431.520254 
L 353.642975 431.911499 
L 359.791736 432.27414 
L 365.940496 432.609867 
L 372.089256 432.920351 
L 378.238017 433.207253 
L 384.386777 433.472216 
L 390.535537 433.716873 
L 396.684298 433.942842 
L 402.833058 434.151728 
L 408.981818 434.345126 
L 415.130579 434.524619 
L 421.279339 434.691778 
L 427.428099 434.848164 
L 433.57686 434.995329 
L 439.72562 435.134814 
L 445.87438 435.268151 
L 452.02314 435.396863 
L 458.171901 435.522464 
L 464.320661 435.64646 
L 470.469421 435.77035 
L 476.618182 435.895624 
L 482.766942 436.023766 
L 488.915702 436.156251 
L 495.064463 436.294549 
L 501.213223 436.440122 
L 507.361983 436.594428 
L 513.510744 436.758918 
L 519.659504 436.935035 
L 525.808264 437.12422 
L 531.957025 437.327907 
L 538.105785 437.547524 
L 544.254545 437.784495 
L 550.403306 438.040241 
L 556.552066 438.316176 
L 562.700826 438.613711 
L 568.849587 438.934251 
L 574.998347 439.2792 
L 581.147107 439.649956 
L 587.295868 440.047913 
L 593.444628 440.474464 
L 599.593388 440.930996 
L 605.742149 441.418893 
L 611.890909 441.939537 
L 618.039669 442.494307 
L 624.18843 443.084579 
L 630.33719 443.711724 
L 636.48595 444.377114 
L 642.634711 445.082116 
L 648.783471 445.828095 
L 654.932231 446.616413 
L 661.080992 447.448432 
L 667.229752 448.325509 
L 673.378512 449.249001 
L 679.527273 450.220262 
L 685.676033 451.240644 
L 691.824793 452.311498 
L 697.973554 453.434172 
L 704.122314 454.610014 
L 710.271074 455.840367 
L 716.419835 457.126577 
L 722.568595 458.469986 
L 728.717355 459.871933 
L 734.866116 461.333759 
L 741.014876 462.856802 
L 747.163636 464.442397 
" style="fill:none;stroke:#bf00bf;stroke-linecap:square;stroke-width:1.5;"/>
   </g>
   <g id="patch_9">
    <path d="M 108 576.72 
L 108 349.92 
" style="fill:none;stroke:#000000;stroke-linecap:square;stroke-linejoin:miter;stroke-width:0.8;"/>
   </g>
   <g id="patch_10">
    <path d="M 777.6 576.72 
L 777.6 349.92 
" style="fill:none;stroke:#000000;stroke-linecap:square;stroke-linejoin:miter;stroke-width:0.8;"/>
   </g>
   <g id="patch_11">
    <path d="M 108 576.72 
L 777.6 576.72 
" style="fill:none;stroke:#000000;stroke-linecap:square;stroke-linejoin:miter;stroke-width:0.8;"/>
   </g>
   <g id="patch_12">
    <path d="M 108 349.92 
L 777.6 349.92 
" style="fill:none;stroke:#000000;stroke-linecap:square;stroke-linejoin:miter;stroke-width:0.8;"/>
   </g>
   <g id="legend_2">
    <g id="patch_13">
     <path d="M 685.5125 571.72 
L 770.6 571.72 
Q 772.6 571.72 772.6 569.72 
L 772.6 497.329375 
Q 772.6 495.329375 770.6 495.329375 
L 685.5125 495.329375 
Q 683.5125 495.329375 683.5125 497.329375 
L 683.5125 569.72 
Q 683.5125 571.72 685.5125 571.72 
z
" style="fill:#ffffff;opacity:0.8;stroke:#cccccc;stroke-linejoin:miter;"/>
    </g>
    <g id="line2d_81">
     <path d="M 687.5125 503.427813 
L 707.5125 503.427813 
" style="fill:none;stroke:#000000;stroke-linecap:square;stroke-width:1.5;"/>
    </g>
    <g id="line2d_82"/>
    <g id="text_42">
     <!-- y=0 -->
     <g transform="translate(715.5125 506.927813)scale(0.1 -0.1)">
      <use xlink:href="#DejaVuSans-79"/>
      <use x="59.179688" xlink:href="#DejaVuSans-3d"/>
      <use x="142.96875" xlink:href="#DejaVuSans-30"/>
     </g>
    </g>
    <g id="line2d_83">
     <path d="M 687.5125 518.105937 
L 707.5125 518.105937 
" style="fill:none;stroke:#008000;stroke-linecap:square;stroke-width:1.5;"/>
    </g>
    <g id="line2d_84"/>
    <g id="text_43">
     <!-- y=x -->
     <g transform="translate(715.5125 521.605937)scale(0.1 -0.1)">
      <use xlink:href="#DejaVuSans-79"/>
      <use x="59.179688" xlink:href="#DejaVuSans-3d"/>
      <use x="142.96875" xlink:href="#DejaVuSans-78"/>
     </g>
    </g>
    <g id="line2d_85">
     <path d="M 687.5125 532.784063 
L 707.5125 532.784063 
" style="fill:none;stroke:#0000ff;stroke-linecap:square;stroke-width:1.5;"/>
    </g>
    <g id="line2d_86"/>
    <g id="text_44">
     <!-- f(x) -->
     <g transform="translate(715.5125 536.284063)scale(0.1 -0.1)">
      <use xlink:href="#DejaVuSans-66"/>
      <use x="35.205078" xlink:href="#DejaVuSans-28"/>
      <use x="74.21875" xlink:href="#DejaVuSans-78"/>
      <use x="133.398438" xlink:href="#DejaVuSans-29"/>
     </g>
    </g>
    <g id="line2d_87">
     <path d="M 687.5125 547.462188 
L 707.5125 547.462188 
" style="fill:none;stroke:#bf00bf;stroke-linecap:square;stroke-width:1.5;"/>
    </g>
    <g id="line2d_88"/>
    <g id="text_45">
     <!-- g(x) -->
     <g transform="translate(715.5125 550.962188)scale(0.1 -0.1)">
      <use xlink:href="#DejaVuSans-67"/>
      <use x="63.476562" xlink:href="#DejaVuSans-28"/>
      <use x="102.490234" xlink:href="#DejaVuSans-78"/>
      <use x="161.669922" xlink:href="#DejaVuSans-29"/>
     </g>
    </g>
    <g id="PathCollection_4">
     <g>
      <use style="fill:#ff0000;stroke:#ff0000;" x="697.5125" xlink:href="#m5a51d3bbf8" y="563.015313"/>
     </g>
    </g>
    <g id="text_46">
     <!-- fixed point -->
     <g transform="translate(715.5125 565.640313)scale(0.1 -0.1)">
      <defs>
       <path d="M 603 3500 
L 1178 3500 
L 1178 0 
L 603 0 
L 603 3500 
z
M 603 4863 
L 1178 4863 
L 1178 4134 
L 603 4134 
L 603 4863 
z
" id="DejaVuSans-69" transform="scale(0.015625)"/>
       <path d="M 2906 2969 
L 2906 4863 
L 3481 4863 
L 3481 0 
L 2906 0 
L 2906 525 
Q 2725 213 2448 61 
Q 2172 -91 1784 -91 
Q 1150 -91 751 415 
Q 353 922 353 1747 
Q 353 2572 751 3078 
Q 1150 3584 1784 3584 
Q 2172 3584 2448 3432 
Q 2725 3281 2906 2969 
z
M 947 1747 
Q 947 1113 1208 752 
Q 1469 391 1925 391 
Q 2381 391 2643 752 
Q 2906 1113 2906 1747 
Q 2906 2381 2643 2742 
Q 2381 3103 1925 3103 
Q 1469 3103 1208 2742 
Q 947 2381 947 1747 
z
" id="DejaVuSans-64" transform="scale(0.015625)"/>
       <path id="DejaVuSans-20" transform="scale(0.015625)"/>
       <path d="M 1159 525 
L 1159 -1331 
L 581 -1331 
L 581 3500 
L 1159 3500 
L 1159 2969 
Q 1341 3281 1617 3432 
Q 1894 3584 2278 3584 
Q 2916 3584 3314 3078 
Q 3713 2572 3713 1747 
Q 3713 922 3314 415 
Q 2916 -91 2278 -91 
Q 1894 -91 1617 61 
Q 1341 213 1159 525 
z
M 3116 1747 
Q 3116 2381 2855 2742 
Q 2594 3103 2138 3103 
Q 1681 3103 1420 2742 
Q 1159 2381 1159 1747 
Q 1159 1113 1420 752 
Q 1681 391 2138 391 
Q 2594 391 2855 752 
Q 3116 1113 3116 1747 
z
" id="DejaVuSans-70" transform="scale(0.015625)"/>
      </defs>
      <use xlink:href="#DejaVuSans-66"/>
      <use x="35.205078" xlink:href="#DejaVuSans-69"/>
      <use x="62.988281" xlink:href="#DejaVuSans-78"/>
      <use x="119.042969" xlink:href="#DejaVuSans-65"/>
      <use x="180.566406" xlink:href="#DejaVuSans-64"/>
      <use x="244.042969" xlink:href="#DejaVuSans-20"/>
      <use x="275.830078" xlink:href="#DejaVuSans-70"/>
      <use x="339.306641" xlink:href="#DejaVuSans-6f"/>
      <use x="400.488281" xlink:href="#DejaVuSans-69"/>
      <use x="428.271484" xlink:href="#DejaVuSans-6e"/>
      <use x="491.650391" xlink:href="#DejaVuSans-74"/>
     </g>
    </g>
   </g>
  </g>
 </g>
 <defs>
  <clipPath id="p52bb399e5f">
   <rect height="226.8" width="669.6" x="108" y="77.76"/>
  </clipPath>
  <clipPath id="p43e3cd508e">
   <rect height="226.8" width="669.6" x="108" y="349.92"/>
  </clipPath>
 </defs>
</svg>
